HIERARCHY
ROOT pelvis
{
  OFFSET 0 100 0
  CHANNELS 6 Xposition Yposition Zposition Zrotation Xrotation Yrotation
  JOINT pelvis_right_femur
  {
    OFFSET -10.78128 -3.44521 -0.5502486
    CHANNELS 3 Zrotation Xrotation Yrotation
    JOINT right_femur_tibia
    {
      OFFSET -0.8047443 -44.0398 -0.1307829
      CHANNELS 3 Zrotation Xrotation Yrotation
      JOINT right_tibia_foot
      {
        OFFSET 3.006224 -47.83518 -5
        CHANNELS 3 Zrotation Xrotation Yrotation
        End Site
        {
          OFFSET 0 -5 15
        }
      }
    }
  }
  JOINT pelvis_left_femur
  {
    OFFSET 10.78128 -3.44521 -0.5502486
    CHANNELS 3 Zrotation Xrotation Yrotation
    JOINT left_femur_tibia
    {
      OFFSET 0.8047443 -44.0398 -0.1307829
      CHANNELS 3 Zrotation Xrotation Yrotation
      JOINT left_tibia_foot
      {
        OFFSET -4.370144 -48.10324 -4.275266
        CHANNELS 3 Zrotation Xrotation Yrotation
        End Site
        {
          OFFSET 0 -5 15
        }
      }
    }
  }
  JOINT pelvis_spine1
  {
    OFFSET 0 6.468898 -3.129235
    CHANNELS 3 Zrotation Xrotation Yrotation
    JOINT spine1
    {
      OFFSET 0 23.15396 4.99043
      CHANNELS 3 Zrotation Xrotation Yrotation
      JOINT spine2
      {
        OFFSET 0 20.79997 -5.064912
        CHANNELS 3 Zrotation Xrotation Yrotation
        JOINT neck
        {
          OFFSET 0 14.38658 9.616178
          CHANNELS 3 Zrotation Xrotation Yrotation
          End Site
          {
            OFFSET 0 20 0
          }
        }
      }
      JOINT right_manubrium
      {
        OFFSET -5.722621 16.35077 3.967754
        CHANNELS 3 Zrotation Xrotation Yrotation
        JOINT right_clavicle
        {
          OFFSET -13.16364 1.694482 -4.693211
          CHANNELS 3 Zrotation Xrotation Yrotation
          JOINT right_humerus
          {
            OFFSET -28.5034 -0.3100689 -2.792744
            CHANNELS 3 Zrotation Xrotation Yrotation
            JOINT right_radius
            {
              OFFSET -25.15693 0.02248979 -1.271978
              CHANNELS 3 Zrotation Xrotation Yrotation
              End Site
              {
                OFFSET -15 0 0
              }
            }
          }
        }
      }
      JOINT left_manubrium
      {
        OFFSET 5.722621 16.35077 3.967754
        CHANNELS 3 Zrotation Xrotation Yrotation
        JOINT left_clavicle
        {
          OFFSET 13.16364 1.694482 -4.693211
          CHANNELS 3 Zrotation Xrotation Yrotation
          JOINT left_humerus
          {
            OFFSET 29.39168 -1.063119 -2.237045
            CHANNELS 3 Zrotation Xrotation Yrotation
            JOINT left_radius
            {
              OFFSET 24.59957 -0.9528479 0.9047498
              CHANNELS 3 Zrotation Xrotation Yrotation
              End Site
              {
                OFFSET 15 -0 -0
              }
            }
          }
        }
      }
    }
  }
}
MOTION
Frames: 21
Frame Time: 0.0416666666667
0 103.5113 0 2.12249 -3.504904 0.2610028 1.209999 -12.11326 6.239741 -0 37.32626 -0 -5.885048 -15.83359 -4.541299 -7.236893 13.13555 -24.19399 -0 6.200384 -0 -0.6194905 -20.20793 22.18988 -4.359782 -2.636044 3.395468 1.707713 8.096178 -7.300121 0.6522683 24.12553 7.592485 4.077621 -21.18824 7.876117 6.375749 -18.61501 11.16828 87.02227 36.00509 -21.61124 -0 0 14.94488 -8.965812 7.762583 5.383495 3.677854 -18.47171 -4.865483 -99.01022 41.86462 26.89683 0 0 -21.29904 -12.17887 15.6545 28.21604
0.1421953 103.3025 1.215425 1.704138 -3.263869 0.3762562 1.694543 -13.14479 6.4967 -0 38.15664 -0 -6.291476 -15.55476 -4.625164 -6.89787 13.09142 -24.15184 -0 5.951844 -0 -0.7992761 -20.5969 22.13837 -4.047043 -2.608539 3.290398 1.824256 8.007233 -7.404594 0.7531394 24.04454 7.496286 3.930542 -21.77762 8.061233 6.13176 -18.77833 11.13065 87.03274 35.14006 -21.48404 -0 0 15.10939 -8.577562 7.380585 5.17427 3.800503 -18.54225 -4.415603 -99.41512 41.36597 27.34105 0 0 -20.41962 -11.55115 16.15756 27.68309
0.2823546 102.8523 3.084169 1.102472 -1.267671 0.5369977 2.750646 -19.5389 5.733579 -0 31.51625 -0 -5.811049 -12.44633 -4.085576 -6.356187 13.70377 -22.99004 -0 4.71272 -0 -0.499198 -22.1757 21.02795 -3.72663 -1.999698 3.184022 2.127027 7.793269 -7.621926 0.9144777 23.10175 7.838617 4.212266 -22.7601 8.506642 6.212712 -18.24437 11.11827 86.97373 36.26205 -21.71528 -0 0 14.472 -9.257411 8.829177 5.543012 4.807093 -19.30096 -3.905616 -96.84767 39.0315 24.60325 0 0 -22.12977 -8.654612 16.31648 24.51572
0.4180312 102.2899 5.199381 0.6985574 -0.454096 0.7831135 3.361367 -22.10541 5.668235 -0 29.56328 -0 -5.789527 -11.24031 -3.914808 -6.041555 13.94542 -22.48443 -0 4.506252 -0 -0.3957278 -22.64935 20.59955 -3.461037 -1.81414 3.102638 2.3105 7.731002 -7.77076 0.9873793 22.69012 7.929096 4.230763 -23.38697 8.746134 6.145095 -18.12873 11.12403 86.9952 36.29002 -21.77567 -0 0 14.23441 -9.346473 9.20067 5.631153 5.185233 -19.60533 -3.521832 -95.97219 37.72498 23.69863 0 0 -22.40381 -7.077671 16.43668 22.80931
0.5326914 101.6816 7.622265 0.1283212 0.3664451 1.085262 4.108213 -24.84487 5.479394 -0 27.79168 -0 -5.999583 -9.775172 -3.777199 -5.558889 14.36472 -21.88459 -0 4.755185 -0 -1.253899 -23.32686 19.52878 -3.034621 -1.553798 2.872155 2.46939 7.497524 -7.945797 1.041522 22.31542 8.063927 4.300775 -23.99344 8.944109 6.018687 -17.85346 11.08226 87.05966 36.06866 -21.92411 -0 0 13.96517 -9.45735 9.527106 5.653241 5.582789 -19.92138 -3.085131 -95.45398 36.90912 23.06928 0 0 -22.59482 -6.187914 16.61841 21.92253
0.6304045 101.0541 10.31799 -0.4047238 1.02702 1.433313 4.794385 -26.99751 5.384631 -0 26.51458 -0 -6.224162 -8.576173 -3.67068 -5.12409 14.72385 -21.34343 -0 5.337083 -0 -2.145889 -23.72417 18.49796 -2.619545 -1.350129 2.652446 2.61287 7.302005 -8.108458 1.074735 21.99885 8.174305 4.340011 -24.52522 9.106807 5.902078 -17.60952 11.05669 87.1339 35.79094 -22.05881 -0 0 13.71646 -9.539945 9.790064 5.677815 5.875965 -20.16488 -2.697888 -95.05923 36.20645 22.58832 0 0 -22.66477 -5.452954 16.7449 21.19436
0.7126812 100.432 13.32028 -0.9592148 1.653122 1.819901 5.495958 -29.00563 5.27912 -0 25.22451 -0 -6.453833 -7.36072 -3.569937 -4.673702 15.11355 -20.73554 -0 6.351613 -0 -3.271531 -23.94503 17.26887 -2.167404 -1.143133 2.408584 2.75101 7.102054 -8.276206 1.090778 21.68617 8.293624 4.383295 -25.01319 9.241816 5.800862 -17.30905 11.03838 87.23675 35.52409 -22.23972 -0 0 13.40523 -9.686891 10.11672 5.735629 6.124646 -20.39312 -2.34767 -94.64839 35.58158 22.08562 0 0 -22.78989 -4.860634 16.80234 20.62957
0.7839781 99.8397 16.64798 -1.515879 2.212723 2.233306 6.198062 -30.73598 5.199642 -0 24.02507 -0 -6.674323 -6.216865 -3.480568 -4.230517 15.47894 -20.0792 -0 7.841654 -0 -4.509557 -23.90214 15.94093 -1.691604 -0.9506049 2.162681 2.885728 6.925772 -8.443428 1.091269 21.38504 8.405665 4.41237 -25.45844 9.349664 5.717384 -16.98322 11.03599 87.36279 35.26381 -22.44365 -0 0 13.04609 -9.879117 10.48765 5.829611 6.304982 -20.58944 -2.040752 -94.21901 34.98083 21.57606 0 0 -22.92338 -4.337707 16.78234 20.14326
0.848926 99.30943 20.33503 -2.081469 2.708116 2.659578 6.913746 -32.17982 5.135242 -0 22.85965 -0 -6.879944 -5.126188 -3.404301 -3.786389 15.80254 -19.33561 -0 9.974093 -0 -5.883352 -23.52957 14.48049 -1.17779 -0.7652942 1.915966 3.018794 6.777895 -8.610705 1.076215 21.0907 8.507165 4.423505 -25.86057 9.425352 5.654723 -16.6177 11.05313 87.519 35.01673 -22.67769 -0 0 12.61564 -10.14051 10.93119 5.974005 6.406518 -20.7537 -1.783977 -93.74119 34.38227 21.0318 0 0 -23.08069 -3.870468 16.66548 19.72799
0.913621 98.88286 24.4135 -2.642362 3.109154 3.076818 7.632041 -33.1992 5.089634 -0 21.77344 -0 -7.064049 -4.150438 -3.347278 -3.351339 16.01474 -18.49055 -0 12.9312 -0 -7.349057 -22.72346 12.92524 -0.6256165 -0.5899565 1.685025 3.148122 6.675324 -8.769879 1.045602 20.81401 8.584355 4.404156 -26.20773 9.459595 5.616745 -16.21913 11.09689 87.70218 34.78373 -22.92501 -0 0 12.11271 -10.47703 11.44942 6.179329 6.401825 -20.86847 -1.590239 -93.21756 33.76876 20.46612 0 0 -23.2296 -3.44321 16.434 19.37065
0.9853869 98.61507 28.91284 -3.173068 3.374514 3.452437 8.325345 -33.59636 5.048563 -0 20.7937 -0 -7.216587 -3.373759 -3.31522 -2.940198 16.00111 -17.51926 -0 16.97463 -0 -8.854176 -21.35383 11.321 -0.03882951 -0.4220133 1.496001 3.267585 6.637638 -8.905167 0.9994206 20.57423 8.618943 4.341152 -26.47425 9.435683 5.610483 -15.79167 11.17591 87.90334 34.57868 -23.1583 -0 0 11.53501 -10.9048 12.04916 6.462371 6.255531 -20.90909 -1.480827 -92.65373 33.13225 19.89686 0 0 -23.33358 -3.05255 16.06314 19.07427
1.072601 98.57433 33.84466 -3.621282 3.441688 3.739192 8.927317 -33.0679 4.975046 -0 19.95607 -0 -7.327197 -2.943261 -3.309484 -2.582852 15.55799 -16.40769 -0 22.38055 -0 -10.29593 -19.29167 9.764673 0.5590121 -0.253666 1.396234 3.363166 6.687093 -8.984429 0.9394847 20.41022 8.583963 4.220778 -26.61521 9.32895 5.644964 -15.35124 11.2995 88.09262 34.43273 -23.31629 -0 0 10.90017 -11.43541 12.71934 6.839951 5.927018 -20.83693 -1.48246 -92.0837 32.4832 19.37378 0 0 -23.32329 -2.706167 15.53602 18.85391
1.183123 98.83505 39.18208 -3.900883 3.234658 3.876274 9.32093 -31.22119 4.790258 -0 19.25157 -0 -7.391403 -3.064494 -3.316275 -2.324037 14.35778 -15.15719 -0 29.35999 -0 -11.52812 -16.46895 8.397367 1.112259 -0.06325533 1.460086 3.409116 6.837807 -8.951695 0.8712421 20.38727 8.445801 4.036489 -26.56256 9.106593 5.728921 -14.92644 11.47343 88.20396 34.40698 -23.28686 -0 0 10.25333 -12.07498 13.42107 7.32588 5.386635 -20.60285 -1.618827 -91.5788 31.86305 18.98311 0 0 -23.09574 -2.427983 14.86073 18.7417
1.32111 99.45426 44.83082 -3.89101 2.684746 3.803024 9.341787 -27.65071 4.368969 -0 18.56634 -0 -7.424804 -3.970148 -3.288754 -2.219176 11.93883 -13.80629 -0 37.8256 -0 -12.37908 -13.00716 7.39206 1.514692 0.1901667 1.787948 3.365062 7.073601 -8.722835 0.8056435 20.60092 8.17391 3.803315 -26.23005 8.73453 5.862847 -14.56363 11.6908 88.11275 34.59691 -22.8875 -0 0 9.680653 -12.81376 14.06393 7.919509 4.651573 -20.16273 -1.886842 -91.26299 31.3566 18.85336 0 0 -22.51705 -2.259736 14.1068 18.78203
1.483752 100.425 50.61171 -3.462275 1.774292 3.493326 8.830243 -22.14208 3.573627 -0 17.6159 -0 -7.470433 -5.793452 -3.134052 -2.315345 7.811267 -12.44442 -0 47.04844 -0 -12.70656 -9.375286 6.914017 1.606508 0.5570409 2.479844 3.181773 7.323237 -8.203182 0.7575255 21.1547 7.766949 3.576412 -25.53701 8.196435 6.025243 -14.3251 11.92005 87.63121 35.1081 -21.88103 -0 0 9.300781 -13.63054 14.50159 8.595018 3.83694 -19.52208 -2.221992 -91.29021 31.06416 19.11884 0 0 -21.47586 -2.242659 13.43442 18.99564
1.66383 101.6205 56.29407 -2.546929 0.5824628 2.99797 7.738081 -14.99397 2.364373 -0 16.00635 -0 -7.557847 -8.326966 -2.740692 -2.61276 1.787913 -11.19028 -0 55.40909 -0 -12.45728 -6.42165 7.098225 1.223949 1.048452 3.569728 2.824514 7.480358 -7.351435 0.7372418 22.07779 7.293664 3.454065 -24.45476 7.530066 6.162958 -14.28313 12.1047 86.56913 35.97136 -20.08112 -0 0 9.223716 -14.54283 14.6003 9.307646 3.180002 -18.80824 -2.48549 -91.73132 30.96952 19.80789 0 0 -20.01767 -2.349892 13.05406 19.27502
1.862783 102.788 61.70869 -1.240706 -0.7277876 2.442736 6.232165 -7.252285 0.9884029 -0 13.56354 -0 -7.571922 -10.81471 -2.077688 -2.998563 -5.538865 -10.09078 -0 60.76918 -0 -11.66532 -4.983451 8.090463 0.3361214 1.560351 4.945415 2.305616 7.540714 -6.277909 0.7416353 23.17662 6.908693 3.527957 -23.05237 6.865288 6.21152 -14.52237 12.20381 84.90438 37.01812 -17.5659 -0 0 9.516735 -15.72113 14.43218 10.04168 2.952395 -18.30216 -2.540571 -92.34601 30.70404 20.67069 0 0 -18.52309 -2.359292 13.03414 19.21975
2.100189 103.6455 66.87035 0.139088 -2.010251 1.94353 4.698963 -0.4624941 0.1013752 -0 10.75187 -0 -7.154393 -12.20312 -1.316626 -3.161647 -12.71532 -8.975477 -0 61.5929 -0 -10.37237 -5.115334 10.06272 -0.8019092 1.875083 6.339382 1.688005 7.771743 -5.266528 0.7685871 23.96224 6.753948 3.762922 -21.51487 6.404954 6.122173 -15.16828 12.26359 82.97483 37.80914 -14.81681 -0 0 10.29085 -17.50643 14.40683 10.87046 3.240751 -18.29297 -2.407281 -92.50115 29.52254 21.19779 0 0 -17.69238 -1.831028 13.05069 18.16821
2.39538 104.0029 71.95485 1.13662 -3.196704 1.512387 3.648646 4.248178 0.4290444 -0 8.533552 -0 -5.975296 -12.12396 -0.8451287 -2.62034 -18.29856 -7.460596 -0 57.65489 -0 -8.660083 -5.864102 12.94941 -1.686782 1.838022 7.44416 1.060428 8.531411 -4.607439 0.8520191 23.93147 6.735411 3.878498 -20.15738 6.288238 5.758688 -16.40575 12.39876 81.43075 37.64506 -12.44092 -0 0 11.86325 -20.01011 14.85803 11.91193 3.784188 -18.7462 -2.28266 -91.7626 26.99344 21.20547 0 0 -18.02654 -0.5688364 12.46655 15.90944
2.742803 103.7628 77.1264 1.371247 -4.168606 1.067146 3.536457 7.132594 1.888835 -0 7.493533 -0 -4.30176 -11.83149 -0.9829028 -1.053677 -22.03536 -5.30886 -0 49.3562 -0 -6.909747 -6.302183 16.04592 -1.879135 1.570491 8.045822 0.5422149 9.643633 -4.359336 1.019079 23.12953 6.487613 3.460569 -19.3812 6.429476 4.779281 -18.33329 12.58916 80.74369 35.83159 -10.51316 -0 0 14.60649 -22.51513 15.27907 13.11044 4.144005 -19.10531 -2.2795 -90.69661 24.03778 21.38484 0 0 -18.99762 0.7130199 10.99674 13.60161
3.134075 102.8775 82.44224 0.8004948 -4.596912 0.5253578 4.303137 9.603157 3.173316 -0 7.21198 -0 -2.998739 -13.47578 -1.434673 1.249079 -24.84011 -2.921727 -0 37.4177 -0 -5.757608 -6.447745 18.26667 -1.37355 1.408466 8.078498 0.2458007 10.19372 -4.29586 1.159043 22.27323 5.868938 2.507613 -19.32059 6.541267 3.139314 -20.54205 12.54377 80.46573 32.78183 -8.305922 -0 0 18.27664 -23.85323 14.65448 14.16714 4.152434 -18.65008 -2.238632 -90.44559 22.53103 22.50295 0 0 -18.92908 0.9480148 9.297193 12.91484
